<svg width="40" height="40" viewBox="0 0 40 40" fill="none" xmlns="http://www.w3.org/2000/svg">
<mask id="mask0_3590_527" style="mask-type:luminance" maskUnits="userSpaceOnUse" x="0" y="0" width="40" height="40">
<path fill-rule="evenodd" clip-rule="evenodd" d="M0 0H40V40H0V0Z" fill="white"/>
</mask>
<g mask="url(#mask0_3590_527)">
<path fill-rule="evenodd" clip-rule="evenodd" d="M40 20C40 31.0457 31.0457 40 20 40C8.95436 40 0 31.0457 0 20C0 8.9543 8.95436 0 20 0C31.0457 0 40 8.9543 40 20Z" fill="#E5E5E5"/>
</g>
<path fill-rule="evenodd" clip-rule="evenodd" d="M33.6492 20C33.6492 27.5679 27.5383 33.7029 20.0001 33.7029C12.462 33.7029 6.35107 27.5679 6.35107 20C6.35107 12.4321 12.462 6.29712 20.0001 6.29712C27.5383 6.29712 33.6492 12.4321 33.6492 20Z" fill="#E51236"/>
<path fill-rule="evenodd" clip-rule="evenodd" d="M20.0348 16.2087C17.9602 16.2087 16.2783 17.8906 16.2783 19.9653C16.2783 22.0399 17.9602 23.7218 20.0348 23.7218C22.1095 23.7218 23.7914 22.0399 23.7914 19.9653C23.7914 17.8906 22.1095 16.2087 20.0348 16.2087ZM20.0348 17.3913C21.4541 17.3913 22.6088 18.546 22.6088 19.9653C22.6088 21.3845 21.4541 22.5392 20.0348 22.5392C18.6156 22.5392 17.4609 21.3845 17.4609 19.9653C17.4609 18.546 18.6156 17.3913 20.0348 17.3913Z" fill="white"/>
<path fill-rule="evenodd" clip-rule="evenodd" d="M23.9334 15.3049C23.4724 15.3049 23.0986 15.6787 23.0986 16.1397C23.0986 16.6007 23.4724 16.9745 23.9334 16.9745C24.3944 16.9745 24.7682 16.6007 24.7682 16.1397C24.7682 15.6787 24.3944 15.3049 23.9334 15.3049Z" fill="white"/>
<path fill-rule="evenodd" clip-rule="evenodd" d="M23.3795 12.9032H16.6206C14.5762 12.9032 12.9033 14.576 12.9033 16.6205V23.3794C12.9033 25.424 14.5762 27.0967 16.6206 27.0967H23.3795C25.424 27.0967 27.0969 25.424 27.0969 23.3794V16.6205C27.0969 14.576 25.424 12.9032 23.3795 12.9032ZM23.3795 14.0522C24.7957 14.0522 25.9478 15.2044 25.9478 16.6205V23.3794C25.9478 24.7956 24.7957 25.9478 23.3795 25.9478H16.6206C15.2045 25.9478 14.0523 24.7956 14.0523 23.3794V16.6205C14.0523 15.2044 15.2045 14.0522 16.6206 14.0522H23.3795Z" fill="white"/>
</svg>
