<svg width="21" height="20" viewBox="0 0 21 20" fill="none" xmlns="http://www.w3.org/2000/svg">
<path id="Vector" d="M6.1665 1H3.1665C2.63607 1 2.12736 1.21071 1.75229 1.58579C1.37722 1.96086 1.1665 2.46957 1.1665 3V6M19.1665 6V3C19.1665 2.46957 18.9558 1.96086 18.5807 1.58579C18.2056 1.21071 17.6969 1 17.1665 1H14.1665M14.1665 19H17.1665C17.6969 19 18.2056 18.7893 18.5807 18.4142C18.9558 18.0391 19.1665 17.5304 19.1665 17V14M1.1665 14V17C1.1665 17.5304 1.37722 18.0391 1.75229 18.4142C2.12736 18.7893 2.63607 19 3.1665 19H6.1665" stroke="#121212" stroke-width="2" stroke-linecap="round" stroke-linejoin="round"/>
</svg>
